<mxfile host="app.diagrams.net" modified="2021-08-06T05:02:24.858Z" agent="5.0 (Macintosh; Intel Mac OS X 10_15_7) AppleWebKit/537.36 (KHTML, like Gecko) Chrome/92.0.4515.131 Safari/537.36" etag="16llFTXPmjBl7po4O6YN" version="14.9.4" type="github">
  <diagram id="q4kvsOsD3G3UG7lQOdju" name="Page-1">
    <mxGraphModel dx="946" dy="646" grid="1" gridSize="10" guides="1" tooltips="1" connect="1" arrows="1" fold="1" page="1" pageScale="1" pageWidth="1169" pageHeight="827" math="0" shadow="0">
      <root>
        <mxCell id="0" />
        <mxCell id="1" parent="0" />
        <mxCell id="JJ-Oiru0L13taxLXexH_-1" value="Aurix TC367DP" style="rounded=0;whiteSpace=wrap;html=1;" vertex="1" parent="1">
          <mxGeometry x="160" y="50" width="370" height="130" as="geometry" />
        </mxCell>
        <mxCell id="JJ-Oiru0L13taxLXexH_-2" value="i.MX8" style="rounded=0;whiteSpace=wrap;html=1;" vertex="1" parent="1">
          <mxGeometry x="160" y="270" width="370" height="130" as="geometry" />
        </mxCell>
        <mxCell id="JJ-Oiru0L13taxLXexH_-3" value="Marvell" style="rounded=0;whiteSpace=wrap;html=1;" vertex="1" parent="1">
          <mxGeometry x="160" y="510" width="370" height="130" as="geometry" />
        </mxCell>
      </root>
    </mxGraphModel>
  </diagram>
</mxfile>
